<svg width="3628" height="574" viewBox="0 0 3628 574" fill="none" xmlns="http://www.w3.org/2000/svg">
<path d="M18.0664 291.242C18.0664 248.599 24.3327 213.524 36.8652 186.018C49.5605 158.348 66.0807 137.759 86.4258 124.25C106.771 110.741 131.429 103.986 160.4 103.986C202.393 103.986 236.572 120.018 262.939 152.082C289.469 184.146 302.734 229.8 302.734 289.045C302.734 348.941 288.737 395.734 260.742 429.426C236.165 459.211 202.799 474.104 160.645 474.104C118.164 474.104 84.6354 459.374 60.0586 429.914C32.0638 396.223 18.0664 349.999 18.0664 291.242ZM79.1016 288.801C79.1016 329.979 86.9141 360.904 102.539 381.574C118.164 402.082 137.533 412.336 160.645 412.336C183.919 412.336 203.206 402.163 218.506 381.818C233.805 361.311 241.455 329.898 241.455 287.58C241.455 246.076 233.968 215.396 218.994 195.539C204.183 175.682 184.733 165.754 160.645 165.754C136.556 165.754 116.943 175.764 101.807 195.783C86.6699 215.803 79.1016 246.809 79.1016 288.801ZM537.109 336.408L594.482 358.625C585.531 398.664 570.638 427.961 549.805 446.516C528.971 464.908 503.337 474.104 472.9 474.104C434.652 474.104 403.646 459.374 379.883 429.914C352.539 395.897 338.867 349.999 338.867 292.219C338.867 231.184 352.62 183.413 380.127 148.908C404.053 118.96 436.198 103.986 476.562 103.986C509.44 103.986 536.947 115.217 559.082 137.678C574.87 153.628 586.426 177.31 593.75 208.723L535.156 225.812C531.413 206.444 523.926 191.633 512.695 181.379C501.628 170.962 488.525 165.754 473.389 165.754C451.742 165.754 434.082 175.194 420.41 194.074C406.738 212.954 399.902 244.123 399.902 287.58C399.902 332.665 406.576 364.729 419.922 383.771C433.268 402.814 450.602 412.336 471.924 412.336C487.549 412.336 501.058 406.314 512.451 394.27C523.844 382.062 532.064 362.775 537.109 336.408ZM711.182 468V170.637H624.023V110.09H857.178V170.637H770.264V468H711.182ZM1238.28 468V110.09H1333.5C1368.98 110.09 1392.17 111.799 1403.08 115.217C1420.49 120.751 1434.81 132.551 1446.04 150.617C1457.44 168.684 1463.13 191.958 1463.13 220.441C1463.13 246.32 1458.25 268.049 1448.49 285.627C1438.72 303.042 1426.51 315.331 1411.87 322.492C1397.22 329.491 1371.99 332.99 1336.18 332.99H1297.36V468H1238.28ZM1297.36 170.637V272.199H1330.08C1352.05 272.199 1366.94 270.653 1374.76 267.561C1382.73 264.468 1389.24 258.934 1394.29 250.959C1399.33 242.821 1401.86 232.893 1401.86 221.174C1401.86 209.292 1399.25 199.283 1394.04 191.145C1388.83 183.007 1382.41 177.554 1374.76 174.787C1367.11 172.02 1350.91 170.637 1326.17 170.637H1297.36ZM1511.96 468V110.09H1729.74V170.637H1571.04V249.982H1718.51V310.285H1571.04V407.697H1735.11V468H1511.96ZM1785.4 468V110.09H1910.16C1942.06 110.09 1964.84 113.345 1978.52 119.855C1992.19 126.203 2003.42 137.352 2012.21 153.303C2021 169.09 2025.39 188.052 2025.39 210.188C2025.39 238.182 2018.64 260.725 2005.13 277.814C1991.78 294.904 1972.74 305.646 1948 310.041C1960.69 319.156 1971.19 329.165 1979.49 340.07C1987.79 350.812 1999.1 370.181 2013.43 398.176L2049.07 468H1978.52L1935.55 390.119C1920.08 361.962 1909.59 344.383 1904.05 337.385C1898.52 330.223 1892.66 325.34 1886.47 322.736C1880.29 319.969 1870.36 318.586 1856.69 318.586H1844.48V468H1785.4ZM1844.48 261.457H1888.43C1915.28 261.457 1932.37 260.318 1939.7 258.039C1947.02 255.598 1952.96 250.796 1957.52 243.635C1962.08 236.473 1964.36 226.952 1964.36 215.07C1964.36 203.677 1962.08 194.562 1957.52 187.727C1952.96 180.728 1946.78 175.926 1938.96 173.322C1933.43 171.532 1917.4 170.637 1890.87 170.637H1844.48V261.457ZM2345.7 468H2281.25L2255.62 386.701H2138.43L2114.26 468H2051.27L2165.53 110.09H2228.27L2345.7 468ZM2236.57 326.398L2196.29 193.586L2156.49 326.398H2236.57ZM2412.84 468V170.637H2325.68V110.09H2558.84V170.637H2471.92V468H2412.84ZM2595.46 468V110.09H2654.54V468H2595.46ZM2699.71 291.242C2699.71 248.599 2705.97 213.524 2718.51 186.018C2731.2 158.348 2747.72 137.759 2768.07 124.25C2788.41 110.741 2813.07 103.986 2842.04 103.986C2884.03 103.986 2918.21 120.018 2944.58 152.082C2971.11 184.146 2984.38 229.8 2984.38 289.045C2984.38 348.941 2970.38 395.734 2942.38 429.426C2917.81 459.211 2884.44 474.104 2842.29 474.104C2799.8 474.104 2766.28 459.374 2741.7 429.914C2713.7 396.223 2699.71 349.999 2699.71 291.242ZM2760.74 288.801C2760.74 329.979 2768.55 360.904 2784.18 381.574C2799.8 402.082 2819.17 412.336 2842.29 412.336C2865.56 412.336 2884.85 402.163 2900.15 381.818C2915.45 361.311 2923.1 329.898 2923.1 287.58C2923.1 246.076 2915.61 215.396 2900.63 195.539C2885.82 175.682 2866.37 165.754 2842.29 165.754C2818.2 165.754 2798.58 175.764 2783.45 195.783C2768.31 215.803 2760.74 246.809 2760.74 288.801ZM3031.49 468V110.09H3089.11L3209.23 349.104V110.09H3264.4V468H3204.83L3086.67 234.602V468H3031.49ZM3311.77 351.545L3369.63 344.709C3376.14 390.445 3397.46 413.312 3433.59 413.312C3451.5 413.312 3465.58 408.674 3475.83 399.396C3486.08 389.956 3491.21 378.319 3491.21 364.484C3491.21 356.346 3489.42 349.429 3485.84 343.732C3482.26 338.036 3476.81 333.397 3469.48 329.816C3462.16 326.073 3444.42 319.888 3416.26 311.262C3391.03 303.612 3372.56 295.311 3360.84 286.359C3349.12 277.408 3339.76 265.689 3332.76 251.203C3325.93 236.555 3322.51 220.848 3322.51 204.084C3322.51 184.553 3326.9 166.975 3335.69 151.35C3344.65 135.725 3356.93 123.924 3372.56 115.949C3388.18 107.974 3407.47 103.986 3430.42 103.986C3464.93 103.986 3491.86 113.345 3511.23 132.062C3530.6 150.78 3540.85 177.554 3541.99 212.385L3482.67 215.559C3480.06 196.353 3474.45 182.925 3465.82 175.275C3457.19 167.626 3444.91 163.801 3428.96 163.801C3413 163.801 3400.72 167.137 3392.09 173.811C3383.46 180.484 3379.15 188.785 3379.15 198.713C3379.15 208.479 3383.06 216.698 3390.87 223.371C3398.68 230.044 3416.67 237.368 3444.82 245.344C3474.61 253.97 3496.09 263.085 3509.28 272.688C3522.62 282.128 3532.8 294.416 3539.79 309.553C3546.79 324.527 3550.29 342.756 3550.29 364.24C3550.29 395.327 3540.69 421.451 3521.48 442.609C3502.44 463.768 3472.57 474.348 3431.88 474.348C3359.94 474.348 3319.91 433.413 3311.77 351.545Z" fill="white"/>
<g clip-path="url(#clip0_1026_5)">
<path d="M1138.12 124.343C1124.87 110.784 1106.34 104 1082.51 104C1066.37 104 1052.79 107.521 1041.41 114.091C1029.94 107.51 1016.08 104 999.478 104C975.994 104 957.536 110.945 944.126 124.847C930.705 138.749 924 156.365 924 177.727V394.294C924 416.999 930.461 434.958 943.372 448.172C956.282 461.398 974.995 468 999.478 468C1016.03 468 1029.72 464.726 1040.99 458.682C1052.26 464.726 1065.96 468 1082.51 468C1106.99 468 1125.71 461.398 1138.63 448.172C1151.54 434.958 1158 416.999 1158 394.294V177.727C1158 155.689 1151.37 137.901 1138.13 124.343H1138.12ZM1007.03 401.411C1007.03 404.127 1006.35 406.156 1005.02 407.509C1003.68 408.872 1001.83 409.548 999.488 409.548C997.151 409.548 995.291 408.872 993.952 407.509C992.614 406.156 991.944 404.127 991.944 401.411V170.6C991.944 167.894 992.614 165.865 993.952 164.502C995.291 163.149 997.14 162.473 999.488 162.473C1001.84 162.473 1003.69 163.149 1005.02 164.502C1006.36 165.865 1007.03 167.894 1007.03 170.6V401.411ZM1090.07 401.411C1090.07 404.127 1089.39 406.156 1088.05 407.509C1086.71 408.872 1084.85 409.548 1082.51 409.548C1080.17 409.548 1078.31 408.872 1076.98 407.509C1075.64 406.156 1074.97 404.127 1074.97 401.411V170.6C1074.97 167.894 1075.64 165.865 1076.98 164.502C1078.31 163.149 1080.16 162.473 1082.51 162.473C1084.86 162.473 1086.7 163.149 1088.05 164.502C1089.39 165.865 1090.07 167.894 1090.07 170.6V401.411Z" fill="white"/>
</g>
<defs>
<clipPath id="clip0_1026_5">
<rect width="234" height="364" fill="white" transform="translate(924 104)"/>
</clipPath>
</defs>
</svg>
