<svg width="416" height="76" viewBox="0 0 416 76" fill="none" xmlns="http://www.w3.org/2000/svg">
<path d="M16.4043 75.4395C11.2949 75.4395 7.39226 74.0755 4.69759 71.3448C2.00292 68.6155 0.65625 64.9048 0.65625 60.2168V15.4928C0.65625 11.0821 2.05625 7.44479 4.85625 4.57413C7.65358 1.70346 11.5043 0.267452 16.4043 0.267452C21.3736 0.267452 25.2403 1.66879 28.0056 4.46879C30.7696 7.26745 32.1523 10.9421 32.1523 15.4928V60.2168C32.1523 64.9048 30.8029 68.6155 28.1109 71.3448C25.4149 74.0755 21.5123 75.4395 16.4043 75.4395ZM16.4043 63.3674C16.8923 63.3674 17.2789 63.2275 17.5589 62.9448C17.8376 62.6661 17.9789 62.2475 17.9789 61.6861V14.0208C17.9789 13.4621 17.8376 13.0434 17.5589 12.7621C17.2789 12.4821 16.8923 12.3435 16.4043 12.3435C15.9149 12.3435 15.5283 12.4821 15.2496 12.7621C14.9683 13.0434 14.8296 13.4621 14.8296 14.0208V61.6861C14.8296 62.2475 14.9683 62.6661 15.2496 62.9448C15.5283 63.2275 15.9149 63.3674 16.4043 63.3674Z" fill="white"/>
<path d="M51.0449 75.6504C45.9356 75.6504 42.0329 74.4424 39.3382 72.0277C36.6435 69.613 35.2969 66.1331 35.2969 61.5824V14.9664C35.2969 10.5584 36.6969 6.97171 39.4969 4.20638C42.2942 1.44104 46.1449 0.0596966 51.0449 0.0596966C55.7342 0.0596966 59.3742 1.4077 61.9635 4.10104C64.5529 6.7957 65.8489 10.4184 65.8489 14.9664V25.7797H52.6195V13.9184C52.6195 12.7277 52.0942 12.133 51.0449 12.133C49.9956 12.133 49.4702 12.7277 49.4702 13.9184V61.9997C49.4702 62.493 49.6089 62.877 49.8902 63.157C50.1689 63.4357 50.5556 63.5757 51.0449 63.5757C51.6049 63.5757 52.0062 63.4357 52.2529 63.157C52.4969 62.877 52.6195 62.493 52.6195 61.9997V48.5637H65.8489V61.0584C65.8489 65.677 64.5889 69.2624 62.0689 71.8171C59.5489 74.3744 55.8756 75.6504 51.0449 75.6504Z" fill="white"/>
<path d="M73.6203 14.7583H67.3203V1.10762H94.0923V14.7583H87.7923V74.5996H73.6203V14.7583Z" fill="white"/>
<path d="M111.412 75.4395C106.303 75.4395 102.4 74.0755 99.7054 71.3448C97.0107 68.6155 95.6641 64.9048 95.6641 60.2168V15.4928C95.6641 11.0821 97.0641 7.44479 99.8641 4.57413C102.661 1.70346 106.512 0.267452 111.412 0.267452C116.381 0.267452 120.248 1.66879 123.013 4.46879C125.777 7.26745 127.16 10.9421 127.16 15.4928V60.2168C127.16 64.9048 125.812 68.6155 123.119 71.3448C120.423 74.0755 116.52 75.4395 111.412 75.4395ZM111.412 63.3674C111.9 63.3674 112.287 63.2275 112.567 62.9448C112.847 62.6661 112.987 62.2475 112.987 61.6861V14.0208C112.987 13.4621 112.847 13.0434 112.567 12.7621C112.287 12.4821 111.9 12.3435 111.412 12.3435C110.923 12.3435 110.536 12.4821 110.257 12.7621C109.976 13.0434 109.837 13.4621 109.837 14.0208V61.6861C109.837 62.2475 109.976 62.6661 110.257 62.9448C110.536 63.2275 110.923 63.3674 111.412 63.3674Z" fill="white"/>
<path d="M128.74 75.4395C123.631 75.4395 119.728 74.0755 117.034 71.3448C114.34 68.6155 112.992 64.9048 112.992 60.2168V15.4928C112.992 11.0821 114.392 7.44479 117.192 4.57413C119.99 1.70346 123.84 0.267452 128.74 0.267452C133.71 0.267452 137.576 1.66879 140.342 4.46879C143.106 7.26745 144.488 10.9421 144.488 15.4928V60.2168C144.488 64.9048 143.14 68.6155 140.447 71.3448C137.751 74.0755 133.848 75.4395 128.74 75.4395ZM128.74 63.3674C129.228 63.3674 129.615 63.2275 129.895 62.9448C130.175 62.6661 130.315 62.2475 130.315 61.6861V14.0208C130.315 13.4621 130.175 13.0434 129.895 12.7621C129.615 12.4821 129.228 12.3435 128.74 12.3435C128.251 12.3435 127.864 12.4821 127.586 12.7621C127.306 13.0434 127.166 13.4621 127.166 14.0208V61.6861C127.166 62.2475 127.306 62.6661 127.586 62.9448C127.864 63.2275 128.251 63.3674 128.74 63.3674Z" fill="white"/>
<path d="M147.633 1.10762H164.221C168.211 1.10762 171.429 2.43828 173.879 5.09828C176.329 7.75828 177.554 11.3636 177.554 15.9116V32.709C177.554 37.9583 176.417 41.6863 174.142 43.8903C171.866 46.0943 168.559 47.1969 164.221 47.1969H161.282V74.5996H147.633V1.10762ZM162.437 34.5996C163.765 34.5996 164.43 33.7263 164.43 31.9743V16.4356C164.43 14.6183 163.73 13.7076 162.331 13.7076H161.282V34.5996H162.437Z" fill="white"/>
<path d="M180.18 1.10762H203.488V15.2823H193.829V30.0863H202.962V44.2569H193.829V60.4249H203.488V74.5996H180.18V1.10762Z" fill="white"/>
<path d="M206.633 1.10762H223.221C227.421 1.10762 230.779 2.43828 233.299 5.09828C235.819 7.75828 237.079 11.3636 237.079 15.9116V27.8823C237.079 33.1996 236.063 36.8756 234.034 38.9036C232.003 40.9343 228.923 41.985 224.795 42.053L225.845 40.2676C229.063 40.6889 231.497 41.2676 233.142 42.0023C234.786 42.7369 235.941 43.8049 236.606 45.2036C237.271 46.6036 237.605 48.5636 237.605 51.081V74.5996H223.955V48.6689C223.955 47.2676 223.71 46.305 223.221 45.781C222.73 45.257 221.751 44.9929 220.282 44.9929V74.5996H206.633V1.10762ZM221.437 33.9703C222.066 33.9703 222.554 33.797 222.906 33.4436C223.255 33.097 223.43 32.4636 223.43 31.5556V16.6463C223.43 14.8263 222.73 13.9183 221.331 13.9183H220.282V33.9703H221.437Z" fill="white"/>
<path d="M244.427 1.10762H266.159L272.144 74.5996H258.284L256.291 27.249L255.031 8.14229H255.766L254.506 27.1436L253.14 74.5996H239.703L244.427 1.10762ZM247.472 47.7236H265.11V59.7956H247.472V47.7236Z" fill="white"/>
<path d="M275.292 14.7583H268.992V1.10762H295.766V14.7583H289.466V74.5996H275.292V14.7583Z" fill="white"/>
<path d="M298.391 1.10762H312.039V74.5996H298.391V1.10762Z" fill="white"/>
<path d="M330.935 75.4395C325.826 75.4395 321.922 74.0755 319.229 71.3448C316.534 68.6155 315.188 64.9048 315.188 60.2168V15.4928C315.188 11.0821 316.588 7.44479 319.386 4.57413C322.185 1.70346 326.035 0.267452 330.935 0.267452C335.905 0.267452 339.772 1.66879 342.537 4.46879C345.3 7.26745 346.682 10.9421 346.682 15.4928V60.2168C346.682 64.9048 345.334 68.6155 342.642 71.3448C339.946 74.0755 336.043 75.4395 330.935 75.4395ZM330.935 63.3674C331.423 63.3674 331.809 63.2275 332.09 62.9448C332.369 62.6661 332.51 62.2475 332.51 61.6861V14.0208C332.51 13.4621 332.369 13.0434 332.09 12.7621C331.809 12.4821 331.423 12.3435 330.935 12.3435C330.445 12.3435 330.06 12.4821 329.781 12.7621C329.5 13.0434 329.361 13.4621 329.361 14.0208V61.6861C329.361 62.2475 329.5 62.6661 329.781 62.9448C330.06 63.2275 330.445 63.3674 330.935 63.3674Z" fill="white"/>
<path d="M349.836 1.10762H365.795L373.773 53.2876H371.252V1.10762H382.277V74.5996H368.313L359.915 17.6969H361.384V74.5996H349.836V1.10762Z" fill="white"/>
<path d="M400.645 75.6504C395.535 75.6504 391.722 74.5824 389.201 72.4464C386.682 70.3131 385.422 67.1464 385.422 62.9451V51.397H399.071V63.3677C399.071 64.4864 399.595 65.0451 400.645 65.0451C401.134 65.0451 401.519 64.905 401.799 64.6264C402.078 64.3464 402.219 63.929 402.219 63.3677V51.7131C402.219 50.1731 402.063 49.0704 401.747 48.4037C401.431 47.741 400.645 46.849 399.386 45.7264L399.175 45.625L393.191 40.6891L392.771 40.373C391.091 38.9744 389.795 37.8011 388.886 36.8557C387.977 35.9131 387.189 34.757 386.525 33.393C385.858 32.029 385.527 30.4371 385.527 28.6171V11.9224C385.527 8.07439 386.909 5.13571 389.674 3.10504C392.438 1.07438 396.13 0.0596966 400.75 0.0596966C405.439 0.0596966 409.131 1.0397 411.827 2.9997C414.519 4.95837 415.869 7.96903 415.869 12.0277V24.3104H402.325V12.2384C402.325 11.1184 401.799 10.5584 400.75 10.5584C399.701 10.5584 399.175 11.1184 399.175 12.2384V23.0517C399.175 24.5211 399.349 25.641 399.701 26.409C400.049 27.181 400.609 27.9157 401.381 28.6171L401.905 29.1397L407.89 34.2837L408.625 34.9131C410.514 36.5251 411.931 37.8557 412.877 38.9037C413.821 39.9544 414.555 41.1277 415.081 42.4211C415.606 43.7171 415.869 45.2744 415.869 47.0944V63.8917C415.869 67.813 414.573 70.7517 411.983 72.709C409.394 74.6677 405.614 75.6504 400.645 75.6504Z" fill="white"/>
</svg>
