<svg width="38" height="59" viewBox="0 0 38 59" fill="none" xmlns="http://www.w3.org/2000/svg">
<path d="M34.7714 3.2973C32.6195 1.09968 29.61 0 25.7412 0C23.1199 0 20.9146 0.570721 19.0664 1.6356C17.2045 0.568981 14.9525 0 12.2571 0C8.44349 0 5.44607 1.12578 3.26833 3.37908C1.08887 5.63239 0 8.48773 0 11.9503V47.0532C0 50.7333 1.04918 53.6443 3.14582 55.7862C5.24245 57.9299 8.28128 59 12.2571 59C14.9456 59 17.1682 58.4693 18.9991 57.4897C20.8283 58.4693 23.0526 59 25.7412 59C29.717 59 32.7558 57.9299 34.8542 55.7862C36.9508 53.6443 38 50.7333 38 47.0532V11.9503C38 8.37811 36.9232 5.49493 34.7731 3.2973H34.7714ZM13.484 48.2068C13.484 48.647 13.3736 48.9758 13.1579 49.1951C12.9387 49.4161 12.6385 49.5257 12.2588 49.5257C11.8792 49.5257 11.5772 49.4161 11.3598 49.1951C11.1424 48.9758 11.0336 48.647 11.0336 48.2068V10.795C11.0336 10.3565 11.1424 10.0276 11.3598 9.80665C11.5772 9.58741 11.8775 9.47779 12.2588 9.47779C12.6402 9.47779 12.9405 9.58741 13.1579 9.80665C13.3753 10.0276 13.484 10.3565 13.484 10.795V48.2068ZM26.9681 48.2068C26.9681 48.647 26.8576 48.9758 26.6402 49.1951C26.4228 49.4161 26.1208 49.5257 25.7412 49.5257C25.3615 49.5257 25.0595 49.4161 24.8421 49.1951C24.6247 48.9758 24.516 48.647 24.516 48.2068V10.795C24.516 10.3565 24.6247 10.0276 24.8421 9.80665C25.0595 9.58741 25.3598 9.47779 25.7412 9.47779C26.1225 9.47779 26.4211 9.58741 26.6402 9.80665C26.8576 10.0276 26.9681 10.3565 26.9681 10.795V48.2068Z" fill="white" />
</svg>
